<?xml version="1.0" encoding="utf-8"?>
<!-- Generator: Adobe Illustrator 23.0.1, SVG Export Plug-In . SVG Version: 6.00 Build 0)  -->
<svg version="1.1" id="Capa_1" xmlns="http://www.w3.org/2000/svg" xmlns:xlink="http://www.w3.org/1999/xlink" x="0px" y="0px"
	 viewBox="0 0 194.12 194.12" style="enable-background:new 0 0 194.12 194.12;" xml:space="preserve">
<style type="text/css">
	.st0{opacity:0.8;fill:#E9D2DD;stroke:#E9D2DD;stroke-width:3.2161;stroke-miterlimit:10;}
	.st1{fill:#CBE3CB;}
</style>
<g>
	<circle class="st0" cx="97.8" cy="98" r="94.01"/>
	<g>
		<path class="st1" d="M73.79,31.47c-1.6,0.26-0.88,0.55,0.63,1.46c1.93,1.16,3.78,0.86,5.79,0.46c0.73-0.14,2.62-0.48,4.26-0.98
			C80.96,31.67,77.41,30.88,73.79,31.47z"/>
		<path class="st1" d="M86.96,30.13c-0.76-1.07-2.9-2.68-3.34-3.19c-1.58-1.83-2.78-3.89-4.58-5.55c-1.94-1.79-5.24-4.29-8-4.23
			c-4.87,0.11,0.29,5.38,1.87,6.68C77.19,27.36,81.47,29.7,86.96,30.13C86.96,30.13,86.96,30.13,86.96,30.13z"/>
		<path class="st1" d="M89.24,19.01c-1.26,1.77-1.17,4.29-1.04,6.46c0.09,1.45,0.43,2.92,0.97,4.26c0.1,0.17,0.19,0.33,0.26,0.5
			c0.01,0.02,0.03,0.04,0.04,0.07c1.49-1.37,2.54-3.82,3.28-5.37c0.63-1.34,1.28-3.46,0.93-5.03
			C93.04,17.08,90.61,17.09,89.24,19.01z"/>
		<path class="st1" d="M113.14,35.47c-1.27,0.06-2.53,0.13-3.8,0.19c-0.2,0.53-0.41,1.05-0.61,1.58c-0.85,2.72-1.52,5.57-1.56,8.42
			c-0.02,1.15,0.14,2.27,0.21,3.4c2.23-1.36,4.03-3.12,5.23-5.68c0.77-1.65,1.28-3.49,1.15-5.32
			C113.72,37.55,113.6,35.79,113.14,35.47z"/>
		<path class="st1" d="M95.91,49.6c-1.09-0.04-2.23-0.03-3.32,0.06c-1.65,0.13-2.78-0.26-1.99,1.54c0.72,1.63,1.74,1.18,3.4,1.08
			c1.25-0.08,2.5-0.23,3.74-0.43c1.08-0.17,3.22-0.5,4.55-1.28C100.21,50.01,98.06,49.67,95.91,49.6z"/>
		<path class="st1" d="M121.52,66.53c2.33-2.48,5.42-6.88,4.28-10.5c-1.11-3.54-4.31-0.93-5.13,1.06c-0.56,1.34-0.83,2.94-1.14,4.36
			c-0.64,2.9-0.82,5.8-0.89,8.74C119.67,69.08,120.96,67.12,121.52,66.53z"/>
		<path class="st1" d="M115.02,72.21c-1.94-0.45-4.49-0.28-6.1-0.3c-2.34-0.03-6.55-0.89-8.84,0.04c-2.86,1.17,0.25,2.48,1.6,2.89
			c2.23,0.68,4.55,0.67,6.82,0.23C110.04,74.77,113.23,73.7,115.02,72.21z"/>
		<path class="st1" d="M127.17,92.59c0.09,0.08,0.17,0.19,0.23,0.33c0.23,0.55,5.16-1.91,5.5-2.14c2.68-1.85,4.12-4.76,4.3-7.96
			c0.38-0.8,0.29-1.59-0.27-2.35c-0.03-1.58-0.66-1.89-1.89-0.92c-1.43,0.52-1.64,0.65-2.44,1.79c-0.96,1.38-1.67,2.91-2.68,4.27
			c-0.92,1.23-1.87,2.35-2.5,3.76c-0.32,0.7-0.5,1.43-0.69,2.16C127.15,91.8,127.26,92.21,127.17,92.59z"/>
		<path class="st1" d="M112.66,93.07c1.44,0.35,9.92,1.65,11.5-0.4c-1.2-0.44-2.49-0.75-3.65-1.21c-1.71-0.68-3.39-1.44-5.11-2.08
			c-1.7-0.63-3.46-1.2-5.27-1.39c-1.17-0.12-4.49-0.41-5.21,0.67C103.64,90.57,111.3,92.73,112.66,93.07z"/>
		<path class="st1" d="M134.12,123.02c1.89-0.06,3.78-0.36,5.59-0.95c2.45-0.8,7.43-3.21,5.66-6.61c-0.98-1.88-4.39-1.26-6.01-0.41
			c-1.62,0.84-2.76,2.33-3.99,3.62c-1.39,1.46-3.51,2.83-5,4.5C131.64,123.25,133.12,123.05,134.12,123.02z"/>
		<path class="st1" d="M110.2,117.66c1.84,1.14,3.9,1.91,5.94,2.58c2.13,0.7,7.72,3.02,10.71,2.52c-0.01-0.05-0.04-0.08-0.04-0.13
			c-0.08-0.66-2.72-2.05-3.23-2.41c-1.6-1.09-3.18-2.19-4.76-3.3c-2.31-1.63-7.6-5.78-10.62-5.29
			C103.68,112.35,108.85,116.83,110.2,117.66z"/>
		<path class="st1" d="M120.35,149.39c-0.77-1.67-2.49-3.99-3.18-5.04c-1.56-2.38-3.7-4.43-5.5-6.64c-1.82-2.22-5.17-5.98-8.41-6.05
			c-1.16-0.63-1.55-0.29-1.19,1.02c-0.26,0.81-0.1,1.51,0.47,2.09c0.42,0.87,1.14,1.83,1.69,2.63c1.47,2.12,3.29,3.7,5.3,5.3
			c2.84,2.27,6.74,5.97,10.54,7.47C120.06,149.89,120.16,149.6,120.35,149.39z"/>
		<path class="st1" d="M137.9,151.56c2.93,0.1,5.6,0.17,8.27-1.29c1.45-0.8,4.1-1.94,1.68-4.23c-0.66-0.63-2.48-0.47-3.27-0.49
			c-4.94-0.09-10.18,1.53-14.48,3.89c-0.68,0.37-1.4,0.82-2.13,1.26c0.91,0.09,1.81,0.17,2.66,0.27
			C133.05,151.27,135.46,151.48,137.9,151.56z"/>
		<g>
			<g>
				<path d="M78.76,157.03c8.81-1.77,15.5-11.83,13.21-20.71c-2.36-9.15-13-13.44-21.62-12.82c-8.75,0.63-18.09,6.39-22.74,13.86
					c-5.39,8.65-4.88,22.24,0.57,30.71c12.46,19.35,44.15,14.33,60.12,2.59c18.95-13.92,24.82-41.4,21.89-63.66
					c-1.91-14.52-7.16-28.53-14.15-41.34c-3.58-6.57-7.61-12.98-12.02-19.03c-4.35-5.97-9.66-10.7-14.6-16.11
					c-0.92-1-2.42,0.47-1.5,1.47c3.58,3.92,7.64,7.31,11.01,11.43c3.64,4.45,6.83,9.26,9.89,14.12
					c5.88,9.36,10.95,19.23,14.51,29.71c6.99,20.6,7.74,44.17-1.87,64.14c-9.02,18.74-29.12,28.65-49.59,27.15
					c-11.29-0.83-22.05-6.97-24.89-18.56c-2.39-9.76-0.43-20.51,7.43-27.14c8.11-6.84,20.07-10.36,29.48-3.87
					c4.92,3.39,7.48,8.54,5.87,14.48c-1.54,5.69-5.62,10.36-11.52,11.55C76.9,155.26,77.44,157.3,78.76,157.03L78.76,157.03z"/>
			</g>
		</g>
		<g>
			<g>
				<path d="M88,30.53c-5.91-0.24-10.4-2.67-14.89-6.36c-1.59-1.31-6.74-6.57-1.87-6.68c2.76-0.06,6.06,2.44,8,4.23
					c1.8,1.66,3,3.72,4.58,5.55c0.55,0.64,3.76,2.98,3.61,3.87c-0.24,1.38-5.66,2.32-7.02,2.59c-2.02,0.4-3.86,0.69-5.79-0.47
					c-1.51-0.9-2.23-1.2-0.63-1.46c4.32-0.71,8.54,0.55,12.69,1.36c1.43,0.28,3.39,0.5,3.39-1.47c0-0.54-0.5-1.13-0.68-1.57
					c-0.56-1.36-0.9-2.85-1-4.32c-0.14-2.17-0.23-4.69,1.04-6.46c1.37-1.92,3.8-1.94,4.44,0.89c0.35,1.57-0.3,3.7-0.93,5.03
					c-0.97,2.05-2.49,5.66-4.84,6.29c0.44,0.34,0.88,0.69,1.32,1.03c-0.02-0.21-0.03-0.43-0.05-0.64c-0.09-1.34-2.2-1.38-2.11-0.02
					c0.02,0.21,0.03,0.43,0.05,0.64c0.05,0.67,0.62,1.22,1.32,1.03c3.59-0.97,5.59-5.42,6.79-8.68c0.94-2.56,1.54-7.87-1.35-9.5
					c-2.46-1.4-5.03,0.85-6.42,2.71c-1.42,1.9-1.31,3.24-1.32,5.55c0,1.12-0.07,2.18,0.06,3.3c0.11,0.97,0.83,2.43,0.75,3.37
					c-0.06,0.62,0.58,0.5,0.11,0.81c-0.41,0.27-2.78-0.7-3.16-0.8c-2.38-0.62-4.55-0.67-7.03-0.64c-1.56,0.02-6.01-0.73-6.42,1.68
					c-0.47,2.81,4.56,4.72,6.6,4.83c3.96,0.23,9.25-1.5,12.29-4.06c0.29-0.24,0.36-0.67,0.28-1.02c-0.43-1.92-2.87-3.66-4.14-5.07
					c-1.95-2.16-3.46-4.61-5.73-6.52c-2.78-2.33-8.77-6.3-12.23-2.98c-3.31,3.17,2.07,7.6,4.29,9.4c4.85,3.93,9.64,6.41,15.97,6.67
					C89.33,32.69,89.36,30.58,88,30.53L88,30.53z"/>
			</g>
		</g>
		<g>
			<g>
				<path d="M103.78,51.43c0.1,0.03,0.2,0.05,0.3,0.08c-0.2-0.52-0.41-1.04-0.61-1.55c-0.77,1.47-4.09,1.98-5.53,2.21
					c-1.24,0.2-2.49,0.35-3.74,0.43c-1.66,0.1-2.69,0.55-3.4-1.08c-0.79-1.8,0.34-1.41,1.99-1.54c1.09-0.09,2.23-0.09,3.32-0.06
					c2.8,0.1,5.61,0.63,8.26,1.54c0.1-0.69,0.2-1.38,0.3-2.06c-0.08-0.01-0.16-0.01-0.24-0.02c-1.35-0.12-1.37,1.99-0.02,2.11
					c0.08,0.01,0.16,0.01,0.24,0.02c1.23,0.11,1.37-1.7,0.3-2.06c-2.51-0.86-20.29-4.27-17.49,2.78c1.36,3.44,5.89,2.65,8.79,2.31
					c2.58-0.3,7.61-0.78,9.03-3.48c0.31-0.59,0.08-1.37-0.61-1.55c-0.1-0.03-0.2-0.05-0.3-0.08
					C103.06,49.06,102.47,51.08,103.78,51.43L103.78,51.43z"/>
			</g>
		</g>
		<g>
			<g>
				<path d="M104.67,52.19c0.06,0.05,0.12,0.1,0.18,0.15c0.4,0.33,0.81,0.39,1.27,0.18c4.54-2.04,7.85-5.06,9.37-9.92
					c0.94-3,1.13-7.87-2.14-9.57c-3.79-1.97-5.84,1.84-6.7,4.95c-0.67,2.44-1.26,4.74-1.48,7.25c-0.2,2.22,0.77,4.38,0.18,6.61
					c0.59-0.15,1.18-0.3,1.76-0.45c-0.09-0.11-0.17-0.22-0.26-0.32c-0.85-1.06-2.34,0.42-1.5,1.47c0.09,0.11,0.17,0.22,0.26,0.32
					c0.5,0.63,1.58,0.27,1.76-0.45c0.57-2.16-0.04-4.27-0.01-6.43c0.05-2.85,0.71-5.7,1.56-8.42c0.2-0.53,0.41-1.05,0.61-1.58
					c1.27-0.06,2.53-0.13,3.8-0.19c0.46,0.32,0.58,2.09,0.62,2.59c0.13,1.83-0.38,3.67-1.15,5.32c-1.61,3.47-4.33,5.46-7.72,6.99
					c0.42,0.06,0.85,0.12,1.27,0.18c-0.06-0.05-0.12-0.1-0.18-0.15C105.14,49.85,103.63,51.32,104.67,52.19L104.67,52.19z"/>
			</g>
		</g>
		<g>
			<g>
				<path d="M116.41,70.97c-0.75,2.28-5.68,4.02-7.7,4.41c-2.27,0.44-4.59,0.45-6.82-0.23c-1.35-0.41-4.46-1.72-1.6-2.89
					c2.29-0.93,6.5-0.07,8.84-0.04c2.12,0.03,5.91-0.28,7.75,0.95c1.13,0.76,2.2-1.05,1.08-1.81c-1.31-0.89-3.32-0.86-4.87-1.03
					c-3.23-0.34-6.52-0.28-9.77-0.31c-2.15-0.02-8.14-0.01-6.97,3.76c1.14,3.69,8.08,4.21,11.01,3.91
					c3.48-0.36,9.83-2.36,11.09-6.16C118.86,70.26,116.83,69.69,116.41,70.97L116.41,70.97z"/>
			</g>
		</g>
		<g>
			<g>
				<path d="M116.69,72.61c0,0.06,0,0.13,0,0.19c0.7,0.01,1.4,0.02,2.11,0.02c0.04-3.73,0.12-7.4,0.93-11.06
					c0.31-1.41,0.59-3.02,1.14-4.36c0.83-1.99,4.02-4.6,5.13-1.06c1.14,3.62-1.95,8.02-4.28,10.5c-0.77,0.82-2.93,4.24-3.9,4.42
					c-1.33,0.25-0.79,2.29,0.54,2.04c1.28-0.25,1.96-1.43,2.73-2.38c1.96-2.42,3.97-4.69,5.56-7.41c1.65-2.81,2.68-7.84,0.1-10.5
					c-2.75-2.83-6.13,0.09-7.49,2.8c-2.51,5.01-2.51,11.54-2.57,16.98c-0.01,1.35,2.09,1.38,2.11,0.02c0-0.06,0-0.13,0-0.19
					C118.81,71.28,116.71,71.25,116.69,72.61L116.69,72.61z"/>
			</g>
		</g>
		<g>
			<g>
				<path d="M124.62,92.38c-0.28,2.91-10.2,1.39-11.76,1.01c-1.36-0.33-9.02-2.5-7.74-4.41c0.72-1.08,4.05-0.79,5.21-0.67
					c1.81,0.19,3.57,0.76,5.27,1.39c1.72,0.64,3.4,1.4,5.11,2.08c1.64,0.66,3.56,0.99,5.1,1.86c1.18,0.67,2.26-1.13,1.08-1.81
					c-2.39-1.37-5.32-1.96-7.88-3.02c-2.8-1.15-5.62-2.31-8.66-2.61c-2.2-0.22-9.49,0.29-7.75,4.22c1.55,3.49,9.13,5.09,12.3,5.5
					c3.32,0.43,11.37,1.22,11.82-3.52C126.86,91.05,124.75,91.04,124.62,92.38L124.62,92.38z"/>
			</g>
		</g>
		<g>
			<g>
				<path d="M125.76,94.28c1.07,2.52,5.82,0.07,7.4-0.75c4.51-2.35,6.69-7.53,6.83-12.41c0.13-4.38-5.06-4.64-7.63-2.25
					c-2.11,1.97-3.43,5-5.14,7.33c-1.61,2.2-1.88,4.49-2.91,6.91c-0.53,1.24,1.5,1.81,2.02,0.58c0.56-1.3,0.68-2.7,1.27-4
					c0.64-1.41,1.58-2.53,2.5-3.76c1.02-1.36,1.72-2.88,2.68-4.27c0.8-1.15,1.01-1.28,2.44-1.79c1.23-0.97,1.86-0.67,1.89,0.92
					c0.56,0.76,0.65,1.54,0.27,2.35c-0.18,3.21-1.62,6.12-4.3,7.96c-0.33,0.23-5.26,2.69-5.5,2.14
					C127.06,91.99,125.24,93.04,125.76,94.28L125.76,94.28z"/>
			</g>
		</g>
		<g>
			<g>
				<path d="M128.34,122.56c-2.26,1.88-9.51-1.18-12-2c-2.04-0.67-4.1-1.44-5.94-2.58c-1.34-0.83-6.52-5.31-2-6.04
					c3.02-0.49,8.31,3.66,10.62,5.29c1.58,1.12,3.16,2.21,4.76,3.3c0.52,0.35,3.15,1.75,3.23,2.41c0.16,1.33,2.26,1.37,2.11,0.02
					c-0.2-1.7-1.62-2.36-2.93-3.29c-3.02-2.14-6.03-4.43-9.2-6.33c-2.48-1.48-10.21-6.19-12.39-1.91c-2.3,4.51,5.02,8.71,8.05,9.99
					c3.53,1.49,7.38,2.56,11.13,3.31c1.96,0.39,4.41,0.67,6.04-0.68C130.85,123.19,129.37,121.69,128.34,122.56L128.34,122.56z"/>
			</g>
		</g>
		<g>
			<g>
				<path d="M128.46,122.96c-0.08,0.03-0.15,0.05-0.23,0.08c-0.76,0.27-1.17,1.5-0.27,1.92c2.14,1,5.23,0.6,7.54,0.41
					c2.82-0.22,5.61-0.96,8.11-2.28c2.78-1.47,5.55-4.85,4.1-8.21c-1.6-3.7-7.4-2.61-10.02-0.84c-2.43,1.63-4.29,4.19-6.48,6.13
					c-1.65,1.47-3.44,2.98-4.17,5.15c-0.17,0.51,0.18,1.19,0.72,1.3c0.1,0.02,0.2,0.04,0.31,0.06c1.32,0.26,1.91-1.76,0.58-2.02
					c-0.1-0.02-0.2-0.04-0.31-0.06c0.24,0.43,0.48,0.87,0.72,1.3c0.96-2.88,4.49-4.82,6.5-6.92c1.23-1.29,2.38-2.78,3.99-3.62
					c1.62-0.85,5.03-1.47,6.01,0.41c1.77,3.4-3.21,5.82-5.66,6.61c-1.8,0.59-3.69,0.89-5.59,0.95c-1.47,0.05-3.95,0.45-5.29-0.18
					c-0.09,0.64-0.18,1.28-0.27,1.92c0.08-0.03,0.15-0.05,0.23-0.08C130.26,124.55,129.74,122.51,128.46,122.96L128.46,122.96z"/>
			</g>
		</g>
		<g>
			<g>
				<path d="M122.26,151.06c-4.38-0.72-9.2-5.38-12.54-8.05c-2.01-1.61-3.83-3.18-5.3-5.3c-0.55-0.8-1.27-1.75-1.69-2.63
					c-0.58-0.59-0.74-1.28-0.47-2.09c-0.36-1.31,0.03-1.65,1.19-1.02c3.25,0.07,6.6,3.83,8.41,6.05c1.8,2.2,3.94,4.25,5.5,6.64
					c0.89,1.36,3.5,4.84,3.56,6.29c0.06,1.35,2.08,1.39,2.11,0.02c0-0.08,0-0.16,0-0.24c0.02-1.35-2.08-1.38-2.11-0.02
					c0,0.08,0,0.16,0,0.24c0.7,0.01,1.4,0.02,2.11,0.02c-0.12-2.95-2.32-4.95-3.84-7.35c-1.87-2.94-4.52-5.6-6.79-8.25
					c-2.05-2.39-7.92-7.18-11.53-5.51c-4.22,1.95,1.48,8.85,3.12,10.78c2.37,2.8,5.61,5.01,8.56,7.15c2.65,1.92,5.81,4.75,9.12,5.3
					C123,153.3,123.6,151.28,122.26,151.06L122.26,151.06z"/>
			</g>
		</g>
		<g>
			<g>
				<path d="M120.77,151.27c2.56,1.45,5.85,1.59,8.72,1.96c3.69,0.48,7.38,0.79,11.1,0.82c3.39,0.03,11.64-1.97,11.18-6.76
					c-0.41-4.35-8.22-3.61-11.07-3.19c-3.04,0.45-6,1.31-8.81,2.53c-1.58,0.69-2.98,1.61-4.49,2.39c-1.18,0.61-3.68,2.06-4.97,2
					c-0.01,0.7-0.02,1.4-0.02,2.11c0.08,0,0.15,0,0.23,0c1.35,0.01,1.38-2.09,0.02-2.11c-0.08,0-0.15,0-0.23,0
					c-1.36-0.01-1.38,2.05-0.02,2.11c2.78,0.12,5.52-2.07,7.89-3.37c4.3-2.36,9.53-3.97,14.48-3.89c0.79,0.01,2.6-0.14,3.27,0.49
					c2.42,2.29-0.23,3.44-1.68,4.23c-2.67,1.46-5.34,1.38-8.27,1.29c-2.44-0.08-4.85-0.29-7.27-0.59c-2.87-0.35-6.4-0.37-8.97-1.83
					C120.67,148.8,119.59,150.61,120.77,151.27L120.77,151.27z"/>
			</g>
		</g>
	</g>
</g>
</svg>
