<?xml version="1.0" encoding="utf-8"?>
<!-- Generator: Adobe Illustrator 23.0.1, SVG Export Plug-In . SVG Version: 6.00 Build 0)  -->
<svg version="1.1" id="Capa_1" xmlns="http://www.w3.org/2000/svg" xmlns:xlink="http://www.w3.org/1999/xlink" x="0px" y="0px"
	 viewBox="0 0 194.12 194.12" style="enable-background:new 0 0 194.12 194.12;" xml:space="preserve">
<style type="text/css">
	.st0{opacity:0.8;}
	.st1{fill:#DEE5C0;}
	.st2{fill:#E2E8C7;}
	.st3{fill:#FFAFC8;}
	.st4{fill:#A2C495;}
	.st5{fill:none;stroke:#000000;stroke-width:1.074;stroke-miterlimit:10;}
</style>
<g>
	<g class="st0">
		<path class="st1" d="M53.06,131.37c0.88-15.72,6.32-26.25,11.66-37.57c3.19-6.76,6.47-13.66,11.53-19.15
			c7.49-8.14,18.36-12.38,28.8-12.61c10.44-0.23,20.45,3.28,29.11,8.63c5.78,3.57,11.21,8.18,13.99,14.57
			c6.1,13.99-2.05,30.96-9.96,45.11c-3.15,5.63-6.29,11.26-9.44,16.89c-3.27,5.85-6.59,11.78-11.16,16.67
			c-11.7,12.53-31.06,16.03-45.06,8.71S50.69,148.12,53.06,131.37"/>
		<g>
			<g>
				<g>
					<g>
						<polygon class="st2" points="50.77,131.05 50.62,131.19 50.94,131.66 						"/>
						<path class="st2" d="M51.28,133.9c0.07-0.08,0.18-0.03,0.25-0.1l-0.85-1.72C50.02,132.75,51.71,133.47,51.28,133.9z"/>
						<path class="st2" d="M51.12,134.37c-0.26,0.62,0.21,0.9,0.37,1.05C51.13,135.19,51.64,134.27,51.12,134.37z"/>
						<path class="st2" d="M79.71,176.73c-0.06-0.01-0.14-0.02-0.2-0.02C79.61,176.75,79.67,176.75,79.71,176.73z"/>
						<path class="st2" d="M93.83,175.77l0.09-0.4c-1.21,0.58-2.6,0.59-3.99,0.66c-0.69-0.03-1.39-0.05-2.09-0.08l-1.04,0
							c-0.34-0.02-0.69-0.03-1.03-0.02l0.19-0.12c-3.43-0.3-6.7-0.86-9.86-1.9c-3.16-1.02-6.22-2.47-9.05-4.52
							c0.11,0.04,0.21-0.03,0.32,0.01c-0.34-0.11-0.78-0.16-1.05-0.43c-0.02-0.13,0.19-0.07,0.31-0.02
							c-0.74-1.36-3.46-2.63-3.72-3.67c-0.32-0.27-0.64-0.24-0.64,0.07c-1.92-1.99-3.56-4.34-5.12-6.77
							c-1.46-2.48-2.79-5.08-3.87-7.73c-0.01-0.29,0.14-0.38,0.38-0.38c-2.46-4.33-2.74-9.69-2.4-14.62c-0.26-0.2-0.3,0.5-0.57,0
							c-0.43,1.63,0.65,2.95,0.23,4.43l-0.27-0.17c-0.1,1.08,0.63,0.17,0.41,1.3c-0.17,0.45-0.34-0.08-0.34,0.13
							c0.33,2.25,0.49,4.67,1.63,6.59c-0.4,0.65,0.56,2.36,0.36,3.31c0.4,0.49,0.54,1.07,0.96,1.15
							c2.42,7.57,7.73,14.25,14.34,18.93c0.47,0.16,0.92,0.36,1.36,0.58c0.46,0.19,0.92,0.41,1.37,0.65
							c0.45,0.24,0.9,0.51,1.35,0.78c0.47,0.24,0.94,0.49,1.42,0.75c0.48,0.25,0.95,0.55,1.45,0.78c0.51,0.22,1.02,0.44,1.53,0.66
							c1.02,0.47,2.13,0.73,3.24,0.92c0.02,0.05,0.01,0.08-0.03,0.11c0.74,0.08,1.64,0.12,2.57,0.23c0.46,0.05,0.93,0.12,1.39,0.2
							c0.46,0.05,0.92,0.1,1.35,0.17L86.5,177c5.14,0.75,10.52,0.01,15.53-1.68c5.02-1.74,9.64-4.5,13.78-7.85
							c4.67-3.91,8.1-8.53,10.99-13.23c2.86-4.74,5.27-9.56,7.44-14.88c0.09,0.06,0.18,0.01,0.08,0.29
							c1.41-2.98,3.22-5.41,4.53-8.22l0.09,0.06c1.49-3.58,3.43-7.1,5.17-10.69c1.75-3.58,3.31-7.27,4.01-10.97
							c1.44-4.29,2.57-9.08,2.49-14.02c-0.09-4.91-1.41-9.95-4.17-13.9l0.19-0.1c-2.26-3.14-4.84-5.91-7.73-8.38
							c-2.89-2.46-6.07-4.59-9.59-6.18c-3.44-1.99-7.41-3.22-11.41-3.94c-4.02-0.74-8.03-1.02-11.98-1.32
							c-2.46-0.54-5.35,0.02-8.02,0.85c-2.69,0.83-5.17,1.91-7.5,2.25c-2.34,0.49-4.6,1.34-6.69,2.48
							c-2.08,1.16-3.99,2.61-5.69,4.27c-3.43,3.32-5.77,7.51-7.67,11.8c-2.43,3.61-4.04,7.68-5.75,11.64
							c-1.71,3.97-3.47,7.84-5.63,11.5c-0.38,2-1.37,3.85-2.33,5.8c-0.97,1.95-1.97,4-2.36,6.21l0.3-0.09
							c-1.19,1.4,0.38,3.71-0.99,4.47l-0.03-0.18c-0.74,0.75,1.13,2.17,0.33,2.56l0.28,0.18c-0.03,1.02-0.36,0.07-0.57,0.84
							c0,0.3,0.54,0.18,0.29,0.77c-0.62,0-0.63,0.63-0.65,1.25c0,0.62-0.01,1.23-0.71,1.21c0.04-0.57-0.61,0.85-0.8-0.45
							c-0.17,0.35-0.23,2.11,0.37,1.98c0.62,0.18,1.13,0.88,1.68-0.13l-0.44-0.24c0.48-0.32,0.25-0.25,0.6-0.35
							c0.17-1.34,0.82-1.46,1.2-2.38c-0.01,0.01-0.03,0.02-0.05,0c-0.47-0.7-0.05-1.57,0.09-2.07l0.28-0.17
							c0.58-0.23-0.8-1.64,0.04-1.11c0.17-2.71,0.81-5.75,1.64-8.66c-0.22-0.51,0.71-2.21-0.13-1.78c0.94-0.51,1.85-2.57,2.11-3.37
							c0.06,0.05,0.12,0.12,0.05,0.23c1.49-1.17-0.2-2.14,1.51-3.11c-0.72-0.55,1.31-2.45,0.73-3.64c0.25-0.1,0.43-0.09,0.55,0.04
							c1.12-2.52,2.72-5.16,3.77-7.28c0.19-2.16,2.4-4.29,2.21-6.28c0.82-1.2,2.22-3.05,2.8-4.97l0.02,0.23
							c0.99-1.99,2.37-4.34,2.69-5.95c1.18,0.02,1.56-0.85,2.38-1.4c0.25-0.71,0.86-1.62,1.6-2.54c0.74-0.92,1.57-1.88,2.26-2.76
							c0.53,0.1,1.25-1.34,1.76-0.89c1.95-2.45,4.89-4.51,8.17-5.87c3.28-1.37,6.9-2.01,10.2-2.04l-0.09,0.06
							c0.78-0.48,1.66-1.43,2.52-1.97c0.09,0.05,0.09,0.16-0.09,0.17c0.61-0.13,1.22-0.04,1.82,0.08c0.6,0.1,1.19,0.21,1.81,0.16
							c-0.01,0.11-0.01,0.11-0.21,0.22c1.16-0.31,2.34,0.55,3.71,0.14l0.06,0.18l0.88-0.17c-0.04,0.22-0.11,0.54-0.55,0.43
							c5.16,0.55,10.38,1.7,15.45,3.61c2.53,0.96,5.01,2.1,7.4,3.43c2.39,1.33,4.69,2.83,6.74,4.6l-0.44-0.09
							c0.62,0.34,1.22,0.71,1.83,1.09c-0.08,0.07-0.2,0.05-0.3,0.02c1.7,2.04,3.97,3.69,5.26,5.96c-0.1,0.04-0.48-0.17-0.4,0.2
							c0.75,0.64,0.94,1.41,1.11,2.02c0.17,0.62,0.35,1.08,1.07,1.3c-0.02,0.11-0.26,0.26-0.42,0.12c0.27,0.6,0.54,1.19,0.81,1.79
							c0.22,0.62,0.39,1.26,0.58,1.9c0.21,0.63,0.31,1.29,0.41,1.96c0.09,0.66,0.25,1.32,0.25,2c0.24,2.69-0.11,5.42-0.63,8.06
							c0.14,2.31-0.38,4.71-1.17,7.03c-0.73,2.34-1.68,4.62-2.19,7.01l-0.2-0.11c-0.88,3-2.29,5.9-3.87,8.72
							c-1.59,2.82-3.33,5.58-4.84,8.44c-1.39,2.3-2.04,4.01-3.34,6.37l-0.28-0.08c-1.29,4.47-5.46,7.87-6.8,12.54l-0.17-0.47
							c0.15,0.94-1.63,2.34-0.63,2.63l-0.7,0.55c-0.28,1.72-1.22,2.88-2.29,4.03c-1.08,1.15-2.27,2.28-3.22,4.05l-0.01-0.35
							c-0.52,0.92-1.27,1.92-1.99,2.29c0.06-0.11-0.03-0.12,0.1-0.34c-0.76,0.4-1.41,0.92-2.06,1.46c-0.67,0.51-1.31,1.09-1.93,1.7
							c-1.3,1.14-2.6,2.4-4.12,3.22l0.11-0.58c-0.57,0.65-1.58,1.27-2.73,1.76c-0.57,0.25-1.14,0.54-1.71,0.77
							c-0.58,0.22-1.13,0.46-1.61,0.71l0.05-0.24l-0.92,0.68l-0.17-0.39c-0.67,0.21-1.33,0.43-1.98,0.66l-0.97,0.36l-0.98,0.3
							l-1.97,0.59C95.19,175.52,94.51,175.65,93.83,175.77z"/>
						<path class="st2" d="M66.65,168.94c0,0.01,0.01,0.02,0.01,0.03C66.75,169,66.71,168.98,66.65,168.94z"/>
						<path class="st2" d="M55.31,127.89c-0.04,0.12-0.08,0.23-0.12,0.33C55.27,128.2,55.27,128,55.31,127.89z"/>
					</g>
				</g>
			</g>
		</g>
	</g>
	<g>
		<path class="st3" d="M135.58,63.84c-1.34,0.5-2.29,1.39-3.75,1.55c-0.95,0.1-1.72-1.17-1.91-1.93c-0.5-2.03,0.27-5.27-0.12-7.57
			c-1.31,0.72-2.38,3.15-3.04,4.01c-0.31,0.4-1.14-0.28-1.33-0.47c-1.81-1.78-3.22-9.24-5.8-4.31c-2.62,5.01-1.42,11.82,1.82,16.43
			c-0.05-0.59,0.22-0.92,1.03-0.29c2.57,1.99,4.78,2.69,7.53,0.65c1.87-1.39,3.77-3.37,5.1-5.25c0.55-0.77,0.86-1.18,1.19-1.98
			C137.21,62.4,136.88,63.35,135.58,63.84z"/>
		<path class="st3" d="M55.98,75.41c-1.78-0.81-2.04-0.9-2.86,0.79c-0.14,0.3-0.25,0.64-0.33,1c0.24,0.99,0.25,1.96-0.09,2.76
			c-0.53,1.22-2.14-1.21-2.25-1.67c-0.15-0.64-0.19-1.37-0.13-2.12c-0.44-1.02-1.4-1.95-2.32-1.58c-0.88,0.36-1.09,2.25-1.14,2.95
			c-0.06,0.97,0.13,1.78-0.26,2.7c-0.21,0.5-0.89,0.17-1.17-0.04c-2.38-1.79-2.49,0.41-2.1,2.38c0.78,3.92,3.05,6.25,6.72,7.06
			c1.46,0.32,5.43-0.53,6.64,0.25c0.01-0.01,0.02-0.02,0.03-0.03c-0.95-1.09-0.66-2.94,0.84-1.49c0.06,0.06,0.11,0.12,0.17,0.18
			c1.08-2.08,1.13-5.25,1.18-7.11C58.97,78.74,58.56,76.58,55.98,75.41z"/>
		<path class="st3" d="M96.31,20.95c-0.43-0.04-1.75,1.69-2.03,1.94c-0.6,0.55-1.65-0.8-1.85-1.16c-0.74-1.3-0.52-2.9-1.17-4.13
			c-1.35-2.56-1.81,0.75-2.62,1.93c-0.3,0.43-0.82,0.23-1.17-0.04c-0.7-0.53-2.41-3.41-2.81-3.53c-3.01-0.95-2.38,6.04-2.31,7.5
			c0.03,0.76-0.9,0.45-1.23,0.21c-1.47-1.09-4.47-6.58-4.31-1.95c0.2,5.82,5.5,8.97,10.13,11.15c0.17,0.08,0.36,0.22,0.55,0.39
			c0.25-0.06,0.5-0.12,0.76-0.19c2.12-0.63,4.11-1.84,5.66-3.41c1.45-1.47,2.87-3.6,3.2-5.68C97.22,23.29,97.64,21.08,96.31,20.95z"
			/>
		<g>
			<path d="M100.41,181.89c0.75-0.99,0.27-5.53,0.27-6.68c0-2.69-0.1-5.37-0.19-8.05c-0.22-5.92-0.6-11.84-1-17.76
				c-0.95-13.83-1.9-27.66-3.11-41.46c-1.1-12.6-2.39-25.2-4.29-37.71c-0.91-5.97-1.94-11.92-3.13-17.85
				c-0.64-3.21-1.38-6.38-2.17-9.55c-0.34-1.35-0.38-4.78-1.23-5.83c0.54,0.27,1.08,0.53,1.62,0.8c-0.13,0.37-0.27,0.73-0.4,1.1
				c-0.05,1.4-2.36-0.7-2.33-1.73c0.04-1.17,0.02-1.08,0.78-1.94c0.44-0.5,1.42,0.55,1.62,0.8c2.11,2.6,2.18,7.6,2.94,10.73
				c1.64,6.8,2.86,13.71,3.97,20.61c2.24,13.82,3.7,27.75,4.92,41.69c1.2,13.68,2.14,27.38,3.08,41.08
				c0.45,6.57,0.88,13.15,1.11,19.73c0.12,3.34,0.07,6.7,0.32,10.03c0.13,1.73,0.61,2.7-0.54,4.21
				C101.85,185.13,99.79,182.7,100.41,181.89L100.41,181.89z"/>
		</g>
		<g>
			<path d="M97.44,117.42c6.36-6.92,10.49-15.53,14.08-24.22c1.69-4.08,3.12-8.25,4.83-12.32c1.61-3.82,4.02-7.92,5.08-11.86
				c0.27-1.02,2.51,1.15,2.22,2.22c-1.06,3.94-3.47,8.04-5.08,11.86c-1.96,4.66-3.56,9.46-5.59,14.09
				c-3.65,8.33-7.45,16.12-13.6,22.81C98.69,120.74,96.63,118.3,97.44,117.42L97.44,117.42z"/>
		</g>
		<g>
			<path d="M98.12,133.2c-15.18-11.6-27.73-27.09-40.64-41.11c-1.02-1.1-0.76-3.22,0.72-1.62c12.71,13.8,25.12,29.19,40.05,40.6
				C99.18,131.77,99.78,134.47,98.12,133.2L98.12,133.2z"/>
		</g>
		<g>
			<path d="M84.69,34.32c1.12-0.88,2.22-0.85,3.57-1.25c2.12-0.63,4.11-1.84,5.66-3.41c1.45-1.47,2.88-3.6,3.2-5.68
				c0.11-0.69,0.53-2.9-0.8-3.03c-0.43-0.04-1.75,1.69-2.03,1.94c-0.6,0.55-1.65-0.8-1.85-1.16c-0.74-1.3-0.52-2.9-1.17-4.13
				c-1.35-2.56-1.81,0.75-2.62,1.93c-0.3,0.43-0.82,0.23-1.17-0.04c-0.7-0.53-2.41-3.41-2.81-3.53c-3.01-0.95-2.38,6.04-2.31,7.5
				c0.04,0.76-0.9,0.45-1.23,0.21c-1.47-1.09-4.47-6.58-4.31-1.95c0.2,5.82,5.5,8.97,10.13,11.15c0.66,0.31,1.75,1.55,1.34,2.36
				c-0.05,0.1-0.1,0.19-0.14,0.29c-0.54,1.07-2.71-1.25-2.22-2.22c0.05-0.1,0.1-0.19,0.14-0.29c0.45,0.79,0.9,1.57,1.34,2.36
				c-6.03-2.84-12.14-7.28-12.88-14.49c-0.16-1.6-0.38-4.23,1.69-4.53c3.09-0.43,3.32,3.91,5.02,5.17
				c-0.41,0.07-0.82,0.14-1.23,0.21c-0.1-2.15-0.63-8.85,2.78-9.11c2.57-0.19,3.23,3.55,4.79,4.74c-0.39-0.01-0.78-0.03-1.17-0.04
				c1.13-1.65,1.66-5.74,4.5-4.06c2.84,1.68,1.88,5.8,3.26,8.23c-0.62-0.39-1.23-0.77-1.85-1.16c1.69-1.56,3.25-3.42,5.56-1.67
				c1.64,1.24,1.99,3.5,1.84,5.41c-0.22,2.88-1.54,5.57-3.46,7.7c-1.38,1.53-2.99,2.62-4.88,3.42c-1.49,0.64-3.5,0.73-4.76,1.71
				C85.76,37.57,83.8,35.01,84.69,34.32L84.69,34.32z"/>
		</g>
		<g>
			<path d="M122.49,71.25c2.57,1.99,4.78,2.69,7.53,0.65c1.87-1.39,3.77-3.37,5.1-5.25c0.55-0.77,0.86-1.18,1.19-1.98
				c0.91-2.26,0.58-1.31-0.72-0.83c-1.34,0.5-2.29,1.39-3.75,1.55c-0.95,0.1-1.72-1.17-1.91-1.93c-0.61-2.49,0.71-6.82-0.57-8.98
				c0.46,0.41,0.93,0.82,1.39,1.23c-1.74-0.32-3.17,3.13-3.99,4.19c-0.31,0.4-1.14-0.28-1.33-0.47c-1.81-1.78-3.22-9.24-5.8-4.31
				c-3.07,5.88-0.89,14.26,3.69,18.62c1.11,1.05,0.85,3.12-0.72,1.62c-5.77-5.5-8.44-13.85-5.55-21.59c0.81-2.18,2.29-4.17,4.7-3.06
				c3.07,1.41,2.43,5.16,4.4,7.1c-0.44-0.16-0.89-0.32-1.33-0.47c1.28-1.65,3.29-6.15,5.92-3.62c2.49,2.39,0.75,7.94,1.47,10.88
				c-0.64-0.64-1.27-1.29-1.91-1.93c2.54-0.27,4.81-3.28,7.33-1.41c1.72,1.27,1.69,3.45,1.03,5.29c-1.19,3.34-4.99,7.4-8.15,8.93
				c-3.14,1.52-5.65-0.15-8.14-2.08C121.44,72.67,120.84,69.96,122.49,71.25L122.49,71.25z"/>
		</g>
		<g>
			<path d="M56.25,90.2c2.51-1.43,2.58-6.26,2.65-8.74c0.08-2.72-0.33-4.88-2.91-6.05c-1.78-0.81-2.04-0.9-2.86,0.79
				c-0.44,0.92-0.62,2.23-0.39,3.21c-0.75-0.56-1.5-1.11-2.25-1.67c0.49-1.14-1.05-3.72-2.48-3.15c-0.88,0.36-1.09,2.25-1.14,2.95
				c-0.06,0.97,0.13,1.78-0.26,2.7c-0.21,0.5-0.89,0.17-1.17-0.04c-2.38-1.79-2.49,0.41-2.1,2.38c0.78,3.92,3.05,6.25,6.72,7.06
				c1.52,0.33,5.78-0.61,6.78,0.36c-1.1-1.06-0.84-3.13,0.72-1.62c1.85,1.79,1.74,3.33-0.77,4.02c-3.54,0.97-7.9-0.15-10.85-2.19
				c-3.48-2.41-5.17-6.99-5.14-11.13c0.03-4.07,2.36-2.83,4.77-1.02c-0.39-0.01-0.78-0.03-1.17-0.04c0.78-1.83-0.36-3.55,1.05-5.31
				c1.11-1.37,2.41-1.51,3.85-0.65c2.17,1.29,4.48,5.43,3.42,7.89c-0.53,1.22-2.14-1.21-2.25-1.67c-0.55-2.3,0.29-5.83,2.81-6.67
				c2.56-0.85,4.42,1.37,5.61,3.33c1.71,2.79,2.51,5.47,2.32,8.73c-0.15,2.69-0.32,7.56-3,9.09C57.18,93.34,55.34,90.72,56.25,90.2
				L56.25,90.2z"/>
		</g>
		<path class="st4" d="M79.21,115.24c-4.32,2.06-8.77,4.14-13.67,3.97c-3.1-0.11-8.34-1.15-9.94-4.24
			c-1.85-3.57,2.18-4.41,4.86-4.31c2.64,0.09,5.11,0.96,7.7,1.38c2.7,0.44,5.67,0.72,8.41,0.97c0.23-0.11,0.47-0.22,0.7-0.33
			C78.34,112.16,80.12,114.8,79.21,115.24z"/>
		<path class="st4" d="M96.16,93.6c-0.17,0.1-0.46,0.06-0.92-0.23c-5.53-3.47-10.84-6.64-16.1-10.62c-1.6-1.21-6.07-4.31-3.95-6.71
			c2.39-2.71,8.31,1.4,10.22,2.86c4.64,3.53,8.01,8.4,10.9,13.39C96.83,93.18,96.61,93.57,96.16,93.6z"/>
		<path class="st4" d="M101.99,65.82c-1.91,1.97-4.93,5.66-7.86,3.56c-0.92-0.65-1.51-3.08-0.11-2.29C94,67.08,94,67.05,93.99,67.03
			c-0.04-0.3-0.09-0.6-0.13-0.91c-0.12-0.83,0.33-0.86,0.87-0.55c0.92-1.4,2.11-2.7,3.17-4c2.43-4.12,5.62-9.55,9.86-10.16
			c0.9-0.13,1.79,1.18,1.91,1.93C110.45,58.09,104.87,62.85,101.99,65.82z"/>
		<path class="st4" d="M125.69,100.47c-2.76,1.26-5.75,1.83-8.74,2.19c-1.68,0.2-3.36,0.51-4.89-0.34
			c-0.68-0.38-1.52-2.22-1.12-2.59c-0.05-0.29-0.01-0.57,0.15-0.79c0.67-0.86,1.59-1.08,2.48-1.64c1.35-0.85,2.38-2.08,3.79-2.87
			c2.4-1.35,5.11-1.89,7.78-2.37c2.46-0.45,6.15-1.32,7.37,1.74C133.71,96.81,127.73,99.53,125.69,100.47z"/>
		<path class="st5" d="M79.21,115.24c-4.32,2.06-8.77,4.14-13.67,3.97c-3.1-0.11-8.34-1.15-9.94-4.24
			c-1.85-3.57,2.18-4.41,4.86-4.31c2.64,0.09,5.11,0.96,7.7,1.38c2.7,0.44,5.67,0.72,8.41,0.97c0.23-0.11,0.47-0.22,0.7-0.33
			C78.34,112.16,80.12,114.8,79.21,115.24z"/>
		<path class="st5" d="M96.16,93.6c-0.17,0.1-0.46,0.06-0.92-0.23c-5.53-3.47-10.84-6.64-16.1-10.62c-1.6-1.21-6.07-4.31-3.95-6.71
			c2.39-2.71,8.31,1.4,10.22,2.86c4.64,3.53,8.01,8.4,10.9,13.39C96.83,93.18,96.61,93.57,96.16,93.6z"/>
		<path class="st5" d="M101.99,65.82c-1.91,1.97-4.93,5.66-7.86,3.56c-0.92-0.65-1.51-3.08-0.11-2.29C94,67.08,94,67.05,93.99,67.03
			c-0.04-0.3-0.09-0.6-0.13-0.91c-0.12-0.83,0.33-0.86,0.87-0.55c0.92-1.4,2.11-2.7,3.17-4c2.43-4.12,5.62-9.55,9.86-10.16
			c0.9-0.13,1.79,1.18,1.91,1.93C110.45,58.09,104.87,62.85,101.99,65.82z"/>
		<path class="st5" d="M125.69,100.47c-2.76,1.26-5.75,1.83-8.74,2.19c-1.68,0.2-3.36,0.51-4.89-0.34
			c-0.68-0.38-1.52-2.22-1.12-2.59c-0.05-0.29-0.01-0.57,0.15-0.79c0.67-0.86,1.59-1.08,2.48-1.64c1.35-0.85,2.38-2.08,3.79-2.87
			c2.4-1.35,5.11-1.89,7.78-2.37c2.46-0.45,6.15-1.32,7.37,1.74C133.71,96.81,127.73,99.53,125.69,100.47z"/>
	</g>
</g>
</svg>
