<?xml version="1.0" encoding="utf-8"?>
<!-- Generator: Adobe Illustrator 23.0.1, SVG Export Plug-In . SVG Version: 6.00 Build 0)  -->
<svg version="1.1" id="Capa_1" xmlns="http://www.w3.org/2000/svg" xmlns:xlink="http://www.w3.org/1999/xlink" x="0px" y="0px"
	 viewBox="0 0 194.12 194.12" style="enable-background:new 0 0 194.12 194.12;" xml:space="preserve">
<style type="text/css">
	.st0{opacity:0.8;fill:#DEE5C0;stroke:#DEE5C0;stroke-width:3.2161;stroke-miterlimit:10;}
	.st1{fill:#FFAFC8;}
	.st2{fill:#A2C495;}
	.st3{fill:none;stroke:#000000;stroke-miterlimit:10;}
</style>
<g>
	<circle class="st0" cx="97.2" cy="98" r="94.01"/>
	<g>
		<path class="st1" d="M139.69,65.75c-1.25,0.46-2.13,1.29-3.49,1.44c-0.88,0.1-1.6-1.08-1.78-1.8c-0.46-1.89,0.25-4.91-0.11-7.05
			c-1.22,0.67-2.21,2.93-2.83,3.73c-0.29,0.37-1.06-0.26-1.24-0.44c-1.69-1.66-3-8.6-5.4-4.01c-2.44,4.66-1.32,11.01,1.7,15.3
			c-0.04-0.55,0.2-0.86,0.96-0.27c2.4,1.85,4.45,2.5,7.01,0.61c1.74-1.29,3.51-3.14,4.75-4.89c0.51-0.72,0.8-1.1,1.1-1.85
			C141.21,64.41,140.91,65.29,139.69,65.75z"/>
		<path class="st1" d="M65.58,76.52c-1.66-0.75-1.9-0.84-2.66,0.73c-0.13,0.28-0.23,0.6-0.31,0.93c0.23,0.93,0.24,1.83-0.08,2.57
			c-0.49,1.13-1.99-1.13-2.1-1.56c-0.14-0.59-0.18-1.28-0.12-1.97c-0.41-0.95-1.31-1.81-2.16-1.47c-0.82,0.33-1.02,2.09-1.06,2.75
			c-0.06,0.9,0.12,1.66-0.24,2.51c-0.2,0.46-0.83,0.16-1.09-0.04c-2.21-1.66-2.32,0.38-1.96,2.22c0.72,3.65,2.84,5.82,6.25,6.57
			c1.36,0.3,5.06-0.5,6.18,0.24c0.01-0.01,0.02-0.02,0.03-0.02c-0.89-1.01-0.62-2.74,0.78-1.39c0.06,0.06,0.1,0.11,0.16,0.17
			c1-1.94,1.05-4.89,1.1-6.62C68.37,79.62,67.98,77.61,65.58,76.52z"/>
		<path class="st1" d="M103.13,25.81c-0.4-0.04-1.63,1.57-1.89,1.81c-0.56,0.51-1.53-0.74-1.72-1.08c-0.69-1.21-0.49-2.7-1.09-3.85
			c-1.25-2.39-1.68,0.7-2.44,1.8c-0.28,0.4-0.76,0.21-1.09-0.04c-0.65-0.5-2.25-3.17-2.61-3.29c-2.81-0.89-2.21,5.62-2.15,6.98
			c0.03,0.71-0.83,0.42-1.14,0.19c-1.37-1.01-4.17-6.13-4.01-1.81c0.19,5.42,5.12,8.35,9.43,10.38c0.15,0.07,0.34,0.2,0.51,0.37
			c0.23-0.05,0.46-0.11,0.71-0.18c1.97-0.59,3.82-1.71,5.27-3.18c1.35-1.37,2.68-3.35,2.98-5.29
			C103.98,27.99,104.37,25.93,103.13,25.81z"/>
		<g>
			<path d="M106.94,175.66c0.7-0.92,0.25-5.15,0.25-6.22c0-2.5-0.09-5-0.18-7.5c-0.2-5.52-0.56-11.03-0.93-16.53
				c-0.88-12.87-1.77-25.75-2.89-38.61c-1.03-11.73-2.22-23.46-3.99-35.11c-0.85-5.56-1.81-11.1-2.91-16.62
				c-0.6-2.99-1.28-5.94-2.02-8.89c-0.31-1.26-0.36-4.45-1.15-5.43c0.5,0.25,1,0.49,1.5,0.74c-0.13,0.34-0.25,0.68-0.38,1.03
				c-0.05,1.3-2.2-0.66-2.17-1.61c0.04-1.09,0.02-1.01,0.73-1.81c0.41-0.46,1.32,0.52,1.5,0.74c1.96,2.42,2.03,7.07,2.74,9.99
				c1.53,6.33,2.66,12.77,3.7,19.19c2.08,12.87,3.44,25.83,4.58,38.82c1.11,12.74,1.99,25.49,2.87,38.24
				c0.42,6.12,0.82,12.24,1.03,18.37c0.11,3.11,0.07,6.24,0.3,9.34c0.12,1.61,0.57,2.51-0.5,3.92
				C108.29,178.67,106.37,176.42,106.94,175.66L106.94,175.66z"/>
		</g>
		<g>
			<path d="M104.18,115.64c5.92-6.44,9.76-14.46,13.11-22.55c1.57-3.8,2.9-7.69,4.5-11.48c1.5-3.56,3.75-7.37,4.73-11.04
				c0.25-0.95,2.33,1.07,2.07,2.06c-0.98,3.67-3.23,7.48-4.73,11.04c-1.83,4.34-3.32,8.81-5.2,13.12
				c-3.4,7.76-6.94,15.01-12.66,21.23C105.35,118.72,103.43,116.45,104.18,115.64L104.18,115.64z"/>
		</g>
		<g>
			<path d="M104.82,130.32C90.68,119.52,79,105.1,66.98,92.05c-0.95-1.03-0.7-3,0.67-1.51c11.83,12.85,23.39,27.18,37.29,37.8
				C105.8,129,106.37,131.51,104.82,130.32L104.82,130.32z"/>
		</g>
		<g>
			<path d="M92.32,38.26c1.05-0.82,2.07-0.79,3.33-1.16c1.97-0.59,3.82-1.71,5.27-3.18c1.35-1.37,2.68-3.35,2.98-5.29
				c0.1-0.64,0.49-2.7-0.74-2.82c-0.4-0.04-1.63,1.57-1.89,1.81c-0.56,0.51-1.53-0.74-1.72-1.08c-0.69-1.21-0.49-2.7-1.09-3.85
				c-1.25-2.39-1.68,0.7-2.44,1.8c-0.28,0.4-0.76,0.21-1.09-0.04c-0.65-0.5-2.25-3.17-2.61-3.29c-2.81-0.89-2.21,5.62-2.15,6.98
				c0.03,0.71-0.83,0.42-1.14,0.19c-1.37-1.01-4.16-6.13-4.01-1.81c0.19,5.42,5.12,8.35,9.43,10.38c0.61,0.29,1.63,1.45,1.25,2.2
				c-0.04,0.09-0.09,0.18-0.13,0.27c-0.5,1-2.52-1.16-2.07-2.06c0.04-0.09,0.09-0.18,0.13-0.27c0.42,0.73,0.83,1.47,1.25,2.2
				c-5.62-2.64-11.31-6.78-11.99-13.49c-0.15-1.49-0.35-3.94,1.58-4.21c2.87-0.4,3.09,3.64,4.68,4.82
				c-0.38,0.06-0.76,0.13-1.14,0.19c-0.09-2-0.59-8.24,2.59-8.48c2.39-0.18,3.01,3.31,4.46,4.41c-0.36-0.01-0.73-0.03-1.09-0.04
				c1.05-1.54,1.55-5.35,4.19-3.78c2.65,1.57,1.75,5.4,3.04,7.66c-0.57-0.36-1.15-0.72-1.72-1.08c1.58-1.45,3.03-3.18,5.17-1.56
				c1.53,1.16,1.85,3.26,1.71,5.04c-0.21,2.68-1.44,5.19-3.22,7.17c-1.29,1.43-2.78,2.44-4.54,3.18c-1.39,0.59-3.26,0.68-4.44,1.59
				C93.31,41.28,91.48,38.91,92.32,38.26L92.32,38.26z"/>
		</g>
		<g>
			<path d="M127.51,72.64c2.4,1.85,4.45,2.5,7.01,0.61c1.74-1.29,3.51-3.14,4.75-4.89c0.51-0.72,0.8-1.1,1.1-1.85
				c0.85-2.11,0.54-1.22-0.67-0.77c-1.25,0.46-2.13,1.29-3.49,1.44c-0.88,0.1-1.6-1.09-1.78-1.8c-0.57-2.32,0.66-6.35-0.53-8.36
				c0.43,0.38,0.87,0.76,1.3,1.14c-1.62-0.29-2.95,2.92-3.71,3.9c-0.29,0.37-1.06-0.26-1.24-0.44c-1.69-1.66-3-8.6-5.4-4.01
				c-2.86,5.47-0.83,13.28,3.43,17.34c1.03,0.98,0.79,2.9-0.67,1.51c-5.38-5.12-7.86-12.9-5.17-20.11c0.76-2.03,2.13-3.88,4.38-2.85
				c2.86,1.31,2.26,4.81,4.1,6.61c-0.41-0.15-0.83-0.29-1.24-0.44c1.19-1.53,3.07-5.72,5.51-3.37c2.32,2.23,0.7,7.39,1.37,10.13
				c-0.59-0.6-1.19-1.2-1.78-1.8c2.37-0.26,4.47-3.05,6.82-1.31c1.6,1.19,1.57,3.21,0.96,4.93c-1.11,3.11-4.64,6.89-7.59,8.31
				c-2.92,1.41-5.26-0.14-7.58-1.94C126.53,73.96,125.97,71.45,127.51,72.64L127.51,72.64z"/>
		</g>
		<g>
			<path d="M65.83,90.29c2.34-1.34,2.4-5.83,2.47-8.14c0.07-2.54-0.31-4.54-2.71-5.63c-1.66-0.75-1.9-0.84-2.66,0.73
				c-0.41,0.86-0.58,2.08-0.36,2.99c-0.7-0.52-1.4-1.04-2.1-1.56c0.46-1.06-0.98-3.47-2.31-2.93c-0.82,0.33-1.02,2.09-1.06,2.75
				c-0.06,0.9,0.12,1.66-0.24,2.51c-0.2,0.46-0.83,0.16-1.09-0.04c-2.21-1.66-2.32,0.38-1.96,2.22c0.72,3.65,2.84,5.82,6.25,6.57
				c1.41,0.31,5.38-0.57,6.32,0.33c-1.02-0.99-0.78-2.92,0.67-1.51c1.72,1.67,1.62,3.1-0.72,3.74c-3.3,0.91-7.36-0.14-10.1-2.04
				c-3.24-2.25-4.81-6.51-4.78-10.36c0.03-3.79,2.2-2.63,4.44-0.95c-0.36-0.01-0.73-0.03-1.09-0.04c0.72-1.7-0.34-3.31,0.98-4.94
				c1.03-1.28,2.24-1.4,3.58-0.6c2.02,1.2,4.17,5.06,3.18,7.35c-0.49,1.13-1.99-1.13-2.1-1.56c-0.51-2.14,0.27-5.43,2.62-6.21
				c2.38-0.79,4.11,1.28,5.23,3.1c1.59,2.6,2.34,5.09,2.16,8.13c-0.14,2.5-0.3,7.04-2.8,8.46C66.7,93.22,64.98,90.77,65.83,90.29
				L65.83,90.29z"/>
		</g>
		<path class="st2" d="M87.21,113.6c-4.03,1.91-8.16,3.86-12.73,3.7c-2.88-0.1-7.77-1.07-9.26-3.95c-1.72-3.32,2.03-4.1,4.53-4.02
			c2.46,0.09,4.76,0.9,7.17,1.28c2.52,0.41,5.28,0.67,7.83,0.9c0.22-0.1,0.43-0.21,0.65-0.31C86.4,110.73,88.06,113.2,87.21,113.6z"
			/>
		<path class="st2" d="M103,93.45c-0.16,0.1-0.43,0.05-0.86-0.22c-5.15-3.23-10.09-6.18-14.99-9.89c-1.49-1.12-5.65-4.02-3.67-6.25
			c2.22-2.52,7.74,1.31,9.51,2.66c4.32,3.29,7.46,7.82,10.15,12.47C103.61,93.06,103.41,93.43,103,93.45z"/>
		<path class="st2" d="M108.42,67.59c-1.78,1.83-4.59,5.27-7.32,3.32c-0.85-0.61-1.41-2.87-0.11-2.13
			c-0.01-0.02-0.01-0.05-0.02-0.07c-0.04-0.28-0.08-0.56-0.12-0.84c-0.11-0.77,0.31-0.8,0.81-0.52c0.86-1.31,1.97-2.51,2.95-3.72
			c2.26-3.84,5.24-8.9,9.18-9.46c0.84-0.12,1.66,1.1,1.78,1.8C116.3,60.39,111.1,64.82,108.42,67.59z"/>
		<path class="st2" d="M130.49,99.85c-2.57,1.17-5.35,1.71-8.14,2.04c-1.56,0.19-3.13,0.48-4.55-0.32
			c-0.63-0.36-1.42-2.07-1.04-2.41c-0.05-0.27-0.01-0.53,0.14-0.74c0.62-0.8,1.48-1,2.31-1.53c1.26-0.79,2.22-1.93,3.53-2.67
			c2.23-1.26,4.76-1.76,7.25-2.21c2.29-0.42,5.73-1.23,6.86,1.62C137.96,96.44,132.39,98.98,130.49,99.85z"/>
		<path class="st3" d="M87.21,113.6c-4.03,1.91-8.16,3.86-12.73,3.7c-2.88-0.1-7.77-1.07-9.26-3.95c-1.72-3.32,2.03-4.1,4.53-4.02
			c2.46,0.09,4.76,0.9,7.17,1.28c2.52,0.41,5.28,0.67,7.83,0.9c0.22-0.1,0.43-0.21,0.65-0.31C86.4,110.73,88.06,113.2,87.21,113.6z"
			/>
		<path class="st3" d="M103,93.45c-0.16,0.1-0.43,0.05-0.86-0.22c-5.15-3.23-10.09-6.18-14.99-9.89c-1.49-1.12-5.65-4.02-3.67-6.25
			c2.22-2.52,7.74,1.31,9.51,2.66c4.32,3.29,7.46,7.82,10.15,12.47C103.61,93.06,103.41,93.43,103,93.45z"/>
		<path class="st3" d="M108.42,67.59c-1.78,1.83-4.59,5.27-7.32,3.32c-0.85-0.61-1.41-2.87-0.11-2.13
			c-0.01-0.02-0.01-0.05-0.02-0.07c-0.04-0.28-0.08-0.56-0.12-0.84c-0.11-0.77,0.31-0.8,0.81-0.52c0.86-1.31,1.97-2.51,2.95-3.72
			c2.26-3.84,5.24-8.9,9.18-9.46c0.84-0.12,1.66,1.1,1.78,1.8C116.3,60.39,111.1,64.82,108.42,67.59z"/>
		<path class="st3" d="M130.49,99.85c-2.57,1.17-5.35,1.71-8.14,2.04c-1.56,0.19-3.13,0.48-4.55-0.32
			c-0.63-0.36-1.42-2.07-1.04-2.41c-0.05-0.27-0.01-0.53,0.14-0.74c0.62-0.8,1.48-1,2.31-1.53c1.26-0.79,2.22-1.93,3.53-2.67
			c2.23-1.26,4.76-1.76,7.25-2.21c2.29-0.42,5.73-1.23,6.86,1.62C137.96,96.44,132.39,98.98,130.49,99.85z"/>
	</g>
</g>
</svg>
